<svg width="22" height="20" viewBox="0 0 22 20" fill="none" xmlns="http://www.w3.org/2000/svg" aria-describedby="your_cart">
	<title id="your_cart">Your Cart</title>
	<path fill-rule="evenodd" clip-rule="evenodd" d="M18.9269 17.2267C18.9538 17.5132 19.1877 17.7277 19.4616 17.7277C19.4787 17.7277 19.4966 17.7267 19.5141 17.7248C19.8095 17.6953 20.0264 17.424 19.9973 17.1195L18.4289 0.500961C18.4024 0.216742 18.1707 0 17.8936 0H12.8655C12.5965 0 12.367 0.222286 12.3308 0.49726C12.3254 0.536079 12.1859 1.44279 10.3853 1.44279H10.3463C8.32736 1.42801 7.73201 0.343829 7.71144 0.305011C7.61993 0.117845 7.43439 0 7.23133 0H2.40267C2.26806 0 2.14503 0.0509155 2.05071 0.135091C1.80822 0.171103 1.61595 0.373945 1.59241 0.631741L0.0024291 17.9278C-0.0195356 18.1657 0.109115 18.3918 0.321141 18.4879L3.55353 19.9533C3.62302 19.9842 3.69698 20 3.77049 20C3.88121 20 3.99148 19.9644 4.08427 19.8955C4.09496 19.8876 4.1053 19.8793 4.1153 19.8706H19.4621C19.7593 19.8706 20 19.622 20 19.3161C20 19.0097 19.7593 18.7615 19.4621 18.7615H4.25067L2.70533 1.10913H6.94848C7.3295 1.60732 8.31166 2.53714 10.3382 2.55193H10.3853C12.3101 2.55193 13.0089 1.68911 13.2614 1.10913H17.4055L18.6875 14.691H5.64809C5.35044 14.691 5.10973 14.9392 5.10973 15.2456C5.10973 15.5515 5.35044 15.8002 5.64809 15.8002H18.7922L18.9269 17.2267ZM1.11002 17.5045L3.15275 18.4303L2.11457 6.57499L1.11002 17.5045ZM10.4419 6.18305C9.92591 6.17566 9.52514 6.17334 9.21985 6.17334C8.62054 6.17334 8.39014 6.18305 8.39014 6.18305C8.20812 6.18305 7.99654 5.86926 7.99654 5.46489C7.99654 5.11043 8.07685 5.03695 8.66854 4.66724C9.70846 4.02024 11.3249 4.02301 12.4411 4.68017C12.9866 4.98472 13.0902 5.1095 13.0902 5.46489C13.0902 5.86926 12.8786 6.18305 12.6832 6.18305C12.6832 6.18305 12.6799 6.18311 12.6748 6.18322C12.5872 6.18507 11.8163 6.20139 10.4419 6.18305ZM10.4271 7.29171C10.9291 7.29908 11.3501 7.30096 11.6876 7.30096C12.3438 7.30096 12.6845 7.29265 12.6966 7.29218C13.5205 7.29218 14.166 6.48943 14.166 5.46488C14.166 4.38216 13.4367 3.97477 12.9651 3.71133L12.9638 3.7106C11.5231 2.86211 9.48393 2.86442 8.08088 3.7374C7.51075 4.09367 6.92032 4.46262 6.92032 5.46488C6.92032 6.48943 7.56581 7.29171 8.41079 7.29171C8.41566 7.29077 8.93612 7.27093 10.4271 7.29171Z" fill="black"/>
</svg>
